<svg width="414" height="250" viewBox="0 0 414 250" fill="none" xmlns="http://www.w3.org/2000/svg">
<path d="M354 208.562H59.5175V208.709H354V208.562Z" fill="#EBEBEB"/>
<path d="M324.493 218.038H304.986V218.185H324.493V218.038Z" fill="#EBEBEB"/>
<path d="M254.594 219.64H231.495V219.787H254.594V219.64Z" fill="#EBEBEB"/>
<path d="M304.397 212.573H270.814V212.72H304.397V212.573Z" fill="#EBEBEB"/>
<path d="M202.701 213.562H162.28V213.709H202.701V213.562Z" fill="#EBEBEB"/>
<path d="M211.671 213.562H207.942V213.709H211.671V213.562Z" fill="#EBEBEB"/>
<path d="M192.117 216.047H117.43V216.195H192.117V216.047Z" fill="#EBEBEB"/>
<path d="M276.015 64.4773C284.199 64.4773 290.833 57.8429 290.833 49.6589C290.833 41.475 284.199 34.8406 276.015 34.8406C267.831 34.8406 261.197 41.475 261.197 49.6589C261.197 57.8429 267.831 64.4773 276.015 64.4773Z" fill="#F5F5F5"/>
<path d="M313.202 95.7573C313.002 93.7784 309.28 92.4297 303.001 92.4297C294.838 92.4297 285.12 94.7031 279.973 97.6891C278.7 97.4105 277.4 97.2821 276.097 97.3063C270.532 97.3063 263.788 99.0379 261.037 101.164C260.806 101.341 260.592 101.538 260.396 101.753H315.169C316.003 101.376 316.792 100.91 317.525 100.363C320.529 98.0366 318.568 96.1107 313.202 95.7573Z" fill="#EBEBEB"/>
<path d="M142.944 102.672C142.791 101.205 140.041 100.21 135.388 100.21C129.339 100.21 122.136 101.888 118.308 104.103C117.364 103.897 116.399 103.802 115.434 103.82C111.311 103.82 106.322 105.098 104.279 106.677C104.108 106.807 103.948 106.95 103.802 107.107H144.381C145.004 106.827 145.596 106.484 146.148 106.082C148.368 104.356 146.92 102.931 142.944 102.672Z" fill="#F5F5F5"/>
<path d="M237.385 74.8961C240.915 73.6447 244.629 72.9879 248.375 72.9525C253.14 72.9525 255.384 74.2777 253.876 76.021C254.817 75.8795 255.768 75.8067 256.72 75.8031C259.972 75.8031 261.297 76.8102 259.665 78.053C259.512 78.1649 259.341 78.2827 259.153 78.3946H227.202C227.389 78.0674 227.649 77.7874 227.961 77.5759C229.687 76.2272 233.745 75.1022 237.385 74.8961Z" fill="#F5F5F5"/>
<path d="M168.782 76.9103C171.034 76.1129 173.402 75.695 175.791 75.6735C178.824 75.6735 180.255 76.5216 179.325 77.6288C179.925 77.5388 180.531 77.4915 181.139 77.4875C183.206 77.4875 184.083 78.1294 183.029 78.9245C182.925 79.0026 182.817 79.0753 182.705 79.1425H162.28C162.392 78.9372 162.549 78.76 162.739 78.6242C163.864 77.7584 166.45 77.0457 168.782 76.9103Z" fill="#F5F5F5"/>
<path d="M170.531 46.0132C170.131 46.0132 169.725 46.0132 169.306 46.0132C169.518 44.3641 166.691 43.2097 161.65 43.2097C160.261 43.2135 158.873 43.2922 157.492 43.4453C157.492 41.3427 153.699 39.9115 147.155 39.9115C139.169 39.9115 129.71 42.0612 124.38 44.9354C119.286 45.3064 113.779 46.8731 111.352 48.7519C111.115 48.9259 110.896 49.1232 110.698 49.3408H174.896C177.31 47.5033 175.337 46.0132 170.531 46.0132Z" fill="#EBEBEB"/>
<path d="M253.016 173.159C250.66 151.956 221.836 196.129 223.497 178.748C224.504 168.147 230.258 153.611 213.19 157.457C196.122 161.303 201.523 181.075 193.095 185.357C184.667 189.638 187.058 170.632 175.673 171.757C172.451 172.075 170.054 174.52 168.27 178.012C168.075 171.999 166.68 166.657 163.052 163.771C149.04 152.634 159.052 186.01 136.672 175.103C128.55 171.139 147.933 147.368 132.019 142.397C116.105 137.427 117.525 156.215 115.369 169.955C111.835 192.471 96.1746 135.294 87.5109 162.752C81.8627 180.645 96.4926 208.621 96.4926 208.621L163.046 208.473V208.55L233.456 208.621C233.456 208.621 254.541 186.994 253.016 173.159Z" fill="#F5F5F5"/>
<path d="M231.154 122.573L235.665 114.486L240.206 123.474L239.346 208.562H231.984L231.154 122.573Z" fill="#F0F0F0"/>
<path d="M224.133 125.476L219.622 114.486L215.081 123.474L215.941 208.562H223.297L224.133 125.476Z" fill="#F0F0F0"/>
<path d="M205.987 122.573L201.475 114.486L196.935 123.474L197.794 208.562H205.157L205.987 122.573Z" fill="#F0F0F0"/>
<path d="M176.863 125.476L181.374 114.486L185.915 123.474L185.055 208.562H177.693L176.863 125.476Z" fill="#F0F0F0"/>
<path d="M298.531 122.573L303.048 114.486L307.589 123.474L306.73 208.562H299.367L298.531 122.573Z" fill="#F0F0F0"/>
<path d="M291.517 125.476L286.999 114.486L282.464 123.474L283.324 208.562H290.68L291.517 125.476Z" fill="#F0F0F0"/>
<path d="M273.371 122.573L268.859 114.486L264.318 123.474L265.178 208.562H272.54L273.371 122.573Z" fill="#F0F0F0"/>
<path d="M247.45 125.476L251.967 114.486L256.502 123.474L255.643 208.562H248.286L247.45 125.476Z" fill="#F0F0F0"/>
<path d="M177.087 148.305L185.668 148.311L185.756 139.623L176.998 139.559L177.087 148.305Z" fill="#E0E0E0"/>
<path d="M197.188 148.316L205.74 148.322L205.822 139.776L197.1 139.712L197.188 148.316Z" fill="#E0E0E0"/>
<path d="M215.334 148.322L223.903 148.328L223.986 139.918L215.252 139.853L215.334 148.322Z" fill="#E0E0E0"/>
<path d="M231.401 148.328L239.953 148.334L240.035 140.041L231.318 139.971L231.401 148.328Z" fill="#E0E0E0"/>
<path d="M247.68 148.34H256.255L256.338 140.165L247.598 140.1L247.68 148.34Z" fill="#E0E0E0"/>
<path d="M264.565 148.346L273.123 148.352L273.2 140.295L264.489 140.23L264.565 148.346Z" fill="#E0E0E0"/>
<path d="M282.711 148.352L291.287 148.358L291.363 140.436L282.635 140.365L282.711 148.352Z" fill="#E0E0E0"/>
<path d="M298.702 140.495L298.784 148.364H307.336L307.413 140.56L298.702 140.495Z" fill="#E0E0E0"/>
<path d="M172.923 143.475L315.705 146.008L315.582 138.257L171.421 134.658L172.923 143.475Z" fill="#F0F0F0"/>
<path d="M206.759 235.159C269.827 235.159 320.953 232.175 320.953 228.492C320.953 224.81 269.827 221.825 206.759 221.825C143.691 221.825 92.5643 224.81 92.5643 228.492C92.5643 232.175 143.691 235.159 206.759 235.159Z" fill="#F5F5F5"/>
<path d="M284.631 225.995H288.165C288.165 225.995 287.806 210.682 295.103 196.317C302.401 181.952 300.516 172.847 296.181 176.469C291.846 180.091 285.574 200.811 284.631 225.995Z" fill="#263238"/>
<path d="M284.39 224.352L281.634 225.854C275.815 229.016 268.977 229.275 262.009 226.36C257.833 224.593 254.194 221.919 253.84 217.808C252.98 207.796 265.09 221.059 265.449 215.223C265.808 209.386 251.449 210.776 251.378 204.35C251.308 197.925 267.222 210.529 266.691 201.341C266.161 192.153 251.838 201.088 251.585 194.185C251.331 187.282 265.837 195.057 266.309 189.055C266.78 183.053 251.449 188.23 252.586 181.292C253.722 174.354 268.134 188.637 270.119 182.959C272.104 177.282 252.668 178.884 256.985 172.328C261.302 165.773 271.032 176.946 273.476 174.36C275.921 171.775 263.976 169.195 265.531 165.49C267.086 161.786 272.599 161.126 278.7 166.621C285.715 172.97 290.786 181.345 289.797 186.487C288.807 191.629 282.658 179.767 280.88 182.889C277.11 189.508 290.274 191.399 290.821 197.566C291.369 203.732 280.073 191.205 277.964 194.933C274.03 201.906 294.102 202.843 292.247 207.348C290.109 212.531 276.168 202.377 275.532 208.897C274.59 218.639 287.9 207.466 289.973 214.051C292.046 220.635 284.39 224.352 284.39 224.352Z" fill="#49851D"/>
<path opacity="0.8" d="M284.39 224.352L281.634 225.854C275.815 229.016 268.977 229.275 262.009 226.36C257.833 224.593 254.194 221.919 253.84 217.808C252.98 207.796 265.09 221.059 265.449 215.223C265.808 209.386 251.449 210.776 251.378 204.35C251.308 197.925 267.222 210.529 266.691 201.341C266.161 192.153 251.838 201.088 251.585 194.185C251.331 187.282 265.837 195.057 266.309 189.055C266.78 183.053 251.449 188.23 252.586 181.292C253.722 174.354 268.134 188.637 270.119 182.959C272.104 177.282 252.668 178.884 256.985 172.328C261.302 165.773 271.032 176.946 273.476 174.36C275.921 171.775 263.976 169.195 265.531 165.49C267.086 161.786 272.599 161.126 278.7 166.621C285.715 172.97 290.786 181.345 289.797 186.487C288.807 191.629 282.658 179.767 280.88 182.889C277.11 189.508 290.274 191.399 290.821 197.566C291.369 203.732 280.073 191.205 277.964 194.933C274.03 201.906 294.102 202.843 292.247 207.348C290.109 212.531 276.168 202.377 275.532 208.897C274.59 218.639 287.9 207.466 289.973 214.051C292.046 220.635 284.39 224.352 284.39 224.352Z" fill="white"/>
<path d="M260.507 227.297H253.44C251.517 216.52 247.611 206.193 241.92 196.841C232.496 181.404 238.892 176.086 246.172 180.409C253.452 184.732 258.617 202.124 260.507 227.297Z" fill="#49851D"/>
<path opacity="0.2" d="M260.507 227.297H253.44C251.517 216.52 247.611 206.193 241.92 196.841C232.496 181.404 238.892 176.086 246.172 180.409C253.452 184.732 258.617 202.124 260.507 227.297Z" fill="black"/>
<path d="M269.153 228.398H260.319C260.231 215.27 257.507 202.294 252.309 190.239C243.751 170.897 252.898 164.242 261.096 169.625C269.295 175.008 272.098 196.865 269.153 228.398Z" fill="#49851D"/>
<path d="M286.269 228.94H289.803C289.803 228.94 290.156 218.468 297.5 211.312C304.215 204.775 299.356 202.478 294.932 205.423C290.509 208.367 286.363 220.105 286.269 228.94Z" fill="#49851D"/>
<path d="M248.122 228.398H241.402C241.402 228.398 243.581 220.329 240.459 209.551C246.708 214.934 248.181 223.439 248.122 228.398Z" fill="#49851D"/>
<path d="M243.492 228.398H238.704C238.704 228.398 239.293 222.65 235.812 214.97C240.919 218.804 242.951 224.864 243.492 228.398Z" fill="#49851D"/>
<path d="M295.863 228.398H298.737C298.737 228.398 298.372 224.947 300.475 220.335C297.424 222.638 296.193 226.278 295.863 228.398Z" fill="#49851D"/>
<path d="M218.62 225.901H221.011C221.011 225.901 220.711 223.027 222.46 219.187C220.389 220.869 219.02 223.263 218.62 225.901Z" fill="#49851D"/>
<path opacity="0.6" d="M218.62 225.901H221.011C221.011 225.901 220.711 223.027 222.46 219.187C220.389 220.869 219.02 223.263 218.62 225.901Z" fill="white"/>
<path d="M117.472 225.901H112.666C112.666 225.901 113.255 220.129 109.756 212.402C114.88 216.259 116.93 222.349 117.472 225.901Z" fill="#49851D"/>
<path opacity="0.2" d="M117.472 225.901H112.666C112.666 225.901 113.255 220.129 109.756 212.402C114.88 216.259 116.93 222.349 117.472 225.901Z" fill="black"/>
<path d="M118.92 228.569H121.471C121.471 228.569 121.147 225.512 123.008 221.424C120.304 223.468 119.209 226.69 118.92 228.569Z" fill="#49851D"/>
<path opacity="0.2" d="M118.92 228.569H121.471C121.471 228.569 121.147 225.512 123.008 221.424C120.304 223.468 119.209 226.69 118.92 228.569Z" fill="white"/>
<path d="M132.82 164.101L128.032 155.514L123.214 165.055L124.127 225.059H131.936L132.82 164.101Z" fill="#49851D"/>
<path opacity="0.6" d="M132.82 164.101L128.032 155.514L123.214 165.055L124.127 225.059H131.936L132.82 164.101Z" fill="white"/>
<path d="M140.265 167.181L145.053 155.514L149.871 165.055L148.958 225.059H141.148L140.265 167.181Z" fill="#49851D"/>
<path opacity="0.6" d="M140.265 167.181L145.053 155.514L149.871 165.055L148.958 225.059H141.148L140.265 167.181Z" fill="white"/>
<path d="M159.512 164.101L164.3 155.514L169.118 165.055L168.205 225.059H160.395L159.512 164.101Z" fill="#49851D"/>
<path opacity="0.6" d="M159.512 164.101L164.3 155.514L169.118 165.055L168.205 225.059H160.395L159.512 164.101Z" fill="white"/>
<path d="M190.415 167.181L185.626 155.514L180.809 165.055L181.722 225.059H189.531L190.415 167.181Z" fill="#49851D"/>
<path opacity="0.6" d="M190.415 167.181L185.626 155.514L180.809 165.055L181.722 225.059H189.531L190.415 167.181Z" fill="white"/>
<g opacity="0.5">
<path d="M123.55 187.165L132.49 186.752L132.626 177.282L123.408 177.853L123.55 187.165Z" fill="#49851D"/>
<path d="M140.559 186.387L149.552 185.975L149.7 176.221L140.412 176.793L140.559 186.387Z" fill="#49851D"/>
<path d="M159.824 185.504L168.812 185.085L168.965 175.026L159.683 175.603L159.824 185.504Z" fill="#49851D"/>
<path d="M180.95 174.284L181.103 184.52L190.156 184.108L190.321 173.707L180.95 174.284Z" fill="#49851D"/>
</g>
<path d="M192.912 180.927L116.723 184.426L116.582 175.226L193.477 170.456L192.912 180.927Z" fill="#49851D"/>
<path opacity="0.6" d="M192.912 180.927L116.723 184.426L116.582 175.226L193.477 170.456L192.912 180.927Z" fill="white"/>
<path d="M213.179 59.9069C202.577 57.0268 197.494 59.1 192.052 60.4958C186.61 61.8917 187.341 57.1564 197.494 52.8393C204.038 50.0652 211.73 52.5507 217.937 55.8666C226.183 60.2838 237.25 54.2351 233.38 58.4698C229.511 62.7044 220.759 61.9682 213.179 59.9069Z" fill="#49851D"/>
<path opacity="0.3" d="M213.179 59.9069C202.577 57.0268 197.494 59.1 192.052 60.4958C186.61 61.8917 187.341 57.1564 197.494 52.8393C204.038 50.0652 211.73 52.5507 217.937 55.8666C226.183 60.2838 237.25 54.2351 233.38 58.4698C229.511 62.7044 220.759 61.9682 213.179 59.9069Z" fill="black"/>
<path d="M212.454 51.4316C210.952 50.7425 205.734 50.8427 203.319 51.3963C198.201 52.5742 197.724 57.8101 199.556 62.4924C201.388 67.1747 202.006 81.4335 215.823 72.3811C227.479 64.7363 220.252 50.8014 212.454 51.4316Z" fill="#263238"/>
<path d="M218.939 84.9497C218.891 86.4162 218.868 88.0123 218.903 89.5495C218.939 91.0867 218.968 92.6534 219.086 94.1906C219.271 97.2423 219.695 100.275 220.352 103.261L220.623 104.35C220.664 104.556 220.705 104.656 220.747 104.804C220.788 104.951 220.853 105.092 220.9 105.24C221.157 105.887 221.456 106.516 221.795 107.124C222.542 108.447 223.355 109.731 224.233 110.97C225.117 112.242 226.053 113.509 227.019 114.751C227.985 115.994 228.975 117.254 229.964 118.474L228.132 120.317C225.61 118.21 223.247 115.919 221.065 113.462C219.937 112.2 218.898 110.862 217.955 109.457C217.445 108.706 216.992 107.919 216.6 107.101C216.506 106.877 216.4 106.665 216.312 106.423C216.223 106.182 216.117 105.917 216.064 105.734L215.687 104.509C215.211 102.888 214.829 101.24 214.545 99.5737C214.233 97.9246 214.05 96.2696 213.891 94.6146C213.732 92.9596 213.632 91.3105 213.603 89.6555C213.573 88.0006 213.573 86.3809 213.685 84.6376L218.939 84.9497Z" fill="#FFB573"/>
<path d="M217.36 78.6124C221.583 80.9152 219.957 89.9735 219.957 89.9735L212.171 92.6297C212.171 92.6297 208.013 81.9047 210.51 79.8727C213.108 77.7584 214.091 76.8278 217.36 78.6124Z" fill="#263238"/>
<path opacity="0.2" d="M217.501 81.2804L218.485 90.4859L212.701 92.4531L217.501 81.2804Z" fill="black"/>
<path d="M229.092 117.625L234.817 118.75L230.906 122.184C230.906 122.184 227.803 121.059 227.496 118.945L229.092 117.625Z" fill="#FFB573"/>
<path d="M237.756 121.183L234.935 124.54L230.889 122.184L234.817 118.739L237.756 121.183Z" fill="#FFB573"/>
<path d="M195.757 223.245H200.898L201.24 211.342H196.104L195.757 223.245Z" fill="#FFB573"/>
<path d="M155.03 203.944L159.424 206.606L166.998 197.271L162.598 194.615L155.03 203.944Z" fill="#FFB573"/>
<path d="M160.072 206.212L156.184 201.942C156.118 201.867 156.027 201.819 155.929 201.808C155.83 201.796 155.73 201.82 155.648 201.877L151.826 204.463C151.732 204.531 151.654 204.619 151.597 204.72C151.539 204.821 151.504 204.933 151.493 205.049C151.482 205.164 151.495 205.281 151.532 205.391C151.569 205.501 151.629 205.602 151.708 205.688C153.086 207.154 153.828 207.79 155.536 209.669C156.591 210.847 158.811 214.381 160.248 215.959C161.685 217.538 163.358 216.201 162.893 215.405C161.377 212.876 160.52 210.006 160.401 207.06C160.393 206.747 160.276 206.448 160.072 206.212V206.212Z" fill="#263238"/>
<path d="M201.075 222.65H195.297C195.199 222.649 195.104 222.683 195.029 222.747C194.954 222.811 194.905 222.9 194.891 222.997L194.231 227.568C194.22 227.683 194.233 227.799 194.269 227.909C194.305 228.019 194.364 228.121 194.441 228.207C194.519 228.293 194.614 228.361 194.72 228.409C194.826 228.456 194.94 228.48 195.056 228.48C197.07 228.445 198.036 228.327 200.58 228.327C202.141 228.327 205.787 228.492 207.943 228.492C210.098 228.492 210.216 226.36 209.315 226.166C205.292 225.3 203.29 224.104 201.935 222.962C201.692 222.763 201.389 222.653 201.075 222.65V222.65Z" fill="#263238"/>
<g opacity="0.2">
<path d="M201.24 211.347L201.064 217.478H195.922L196.099 211.347H201.24Z" fill="black"/>
<path d="M162.592 194.615L166.992 197.277L162.84 202.389L158.687 199.427L162.592 194.615Z" fill="black"/>
</g>
<path d="M218.886 81.198C218.697 84.4314 217.437 91.9289 212.407 109.233L191.693 106.671C193.03 98.6196 193.684 93.5074 192.064 77.3756C192.036 77.1022 192.063 76.826 192.146 76.5637C192.228 76.3014 192.362 76.0586 192.542 75.8502C192.721 75.6418 192.941 75.4721 193.188 75.3516C193.435 75.2311 193.704 75.1623 193.978 75.1493C196.247 75.0413 198.52 75.0629 200.787 75.2141C203.952 75.3817 207.101 75.7753 210.21 76.392C212.566 76.9103 215.146 77.6524 216.818 78.1589C217.451 78.3642 217.998 78.7743 218.372 79.3245C218.747 79.8747 218.927 80.5338 218.886 81.198V81.198Z" fill="#49851D"/>
<path d="M207.242 94.0668H207.195L199.32 91.758C199.284 91.7471 199.253 91.7229 199.233 91.6902C199.214 91.6575 199.207 91.6187 199.214 91.5814L199.644 89.3021C199.653 89.2641 199.675 89.2306 199.706 89.2078C199.738 89.1851 199.776 89.1746 199.815 89.1784L213.455 90.3563C213.476 90.3578 213.495 90.3633 213.513 90.3724C213.531 90.3815 213.547 90.394 213.56 90.4094C213.574 90.4247 213.584 90.4425 213.59 90.4617C213.596 90.4809 213.598 90.5011 213.597 90.5212L213.444 92.8359C213.44 92.8707 213.425 92.9036 213.402 92.9299C213.379 92.9563 213.348 92.9748 213.314 92.9831L207.265 94.0668H207.242ZM199.544 91.493L207.248 93.7488L213.137 92.7004L213.273 90.6626L199.927 89.4846L199.544 91.493Z" fill="white"/>
<path d="M195.062 75.1082L193.943 75.1494C193.669 75.1631 193.401 75.2325 193.154 75.3534C192.908 75.4742 192.689 75.644 192.51 75.8523C192.332 76.0606 192.197 76.3031 192.116 76.565C192.034 76.8269 192.006 77.1028 192.035 77.3757C192.459 81.5986 192.724 85.0676 192.871 88.0242C193.862 87.5117 194.818 86.9353 195.733 86.2985C195.733 86.2985 196.835 80.4147 195.062 75.1082Z" fill="#263238"/>
<path d="M216.771 78.1649C216.277 78.0117 215.699 77.835 215.075 77.6525C215.599 78.8304 216.418 84.3667 215.599 88.5483C216.174 89.0149 216.84 89.356 217.555 89.5496C218.204 86.8023 218.651 84.0109 218.892 81.198C218.928 80.5283 218.738 79.8658 218.354 79.3161C217.97 78.7664 217.413 78.3612 216.771 78.1649V78.1649Z" fill="#263238"/>
<path d="M212.984 77.0634C212.059 76.8219 211.099 76.5804 210.163 76.3743C207.054 75.758 203.905 75.3644 200.74 75.1963C199.562 75.108 198.384 75.0727 197.294 75.0668C198.03 76.3743 198.973 82.3464 198.572 86.051C204.55 87.7766 213.473 88.0063 213.473 88.0063C213.473 88.0063 214.539 80.7562 212.984 77.0634Z" fill="#263238"/>
<path d="M203.001 64.7365C203.219 67.8403 203.125 73.459 200.757 75.2141C200.757 75.2141 201.835 78.8009 206.859 81.4042C210.905 80.0083 210.163 76.3803 210.163 76.3803C206.888 75.1552 207.283 72.6639 208.167 70.3846L203.001 64.7365Z" fill="#FFB573"/>
<path opacity="0.2" d="M205.104 67.0392L208.161 70.3786C207.947 70.9083 207.781 71.4564 207.666 72.0159C206.4 71.6684 204.804 70.0311 204.833 68.6647C204.827 68.1112 204.919 67.5609 205.104 67.0392V67.0392Z" fill="black"/>
<path d="M203.472 56.8267C201.923 61.6856 201.158 63.7117 202.607 67.0806C204.792 72.1457 211.094 72.9702 214.068 68.6943C216.748 64.8248 218.838 57.5334 214.928 53.8347C214.069 53.0167 213.016 52.4315 211.867 52.1348C210.719 51.8381 209.514 51.8397 208.367 52.1394C207.219 52.4391 206.167 53.027 205.311 53.8473C204.454 54.6676 203.821 55.6932 203.472 56.8267V56.8267Z" fill="#FFB573"/>
<path d="M203.337 53.0749L201.977 61.0848C206.023 59.7184 213.514 56.3731 214.516 54.4943C216.371 50.9369 206.406 50.4245 203.337 53.0749Z" fill="#263238"/>
<path d="M201.005 51.5024C200.61 49.1112 197.86 45.2299 201.382 43.1568C204.904 41.0836 216.771 42.8859 217.949 45.0179C220.146 49.1407 220.264 55.207 220.264 55.207C220.264 55.207 209.951 51.1255 201.005 51.5024Z" fill="#49851D"/>
<path d="M199.968 48.6459C200.349 49.5993 200.645 50.5848 200.851 51.5907C201.217 51.4611 208.508 51.0842 213.072 52.8629C215.592 53.8665 218.173 54.7104 220.8 55.3895C220.8 55.3895 220.434 52.8393 220.046 51.1019C219.657 49.3644 208.078 46.6022 199.968 48.6459Z" fill="#49851D"/>
<path opacity="0.3" d="M199.968 48.6459C200.349 49.5993 200.645 50.5848 200.851 51.5907C201.217 51.4611 208.508 51.0842 213.072 52.8629C215.592 53.8665 218.173 54.7104 220.8 55.3895C220.8 55.3895 220.434 52.8393 220.046 51.1019C219.657 49.3644 208.078 46.6022 199.968 48.6459Z" fill="white"/>
<path d="M197.494 52.8394C204.12 50.2715 211.73 52.5508 217.937 55.8667C224.481 59.3592 232.75 56.3084 234.01 56.9739C233.362 56.3849 232.508 56.5086 229.887 56.6677C227.267 56.8267 223.485 56.3025 220.706 54.6946C216.557 52.087 211.776 50.6615 206.877 50.5719C199.626 50.2951 192.117 54.2765 189.155 58.4051C191.24 57.6689 193.378 54.4473 197.494 52.8394Z" fill="#49851D"/>
<path d="M212.378 109.233C212.378 109.233 211.547 149.017 209.286 164.531C206.93 180.668 201.876 216.295 201.876 216.295H194.927C194.927 216.295 195.086 180.162 196.446 164.195C197.919 146.791 197.212 107.354 197.212 107.354L212.378 109.233Z" fill="#49851D"/>
<path d="M194.326 216.542H202.477L203.078 213.939L193.949 213.621L194.326 216.542Z" fill="#49851D"/>
<path opacity="0.3" d="M194.326 216.542H202.477L203.078 213.939L193.949 213.621L194.326 216.542Z" fill="black"/>
<path opacity="0.2" d="M202.236 117.902C206.058 128.769 199.685 146.932 197.023 153.658C197.394 143.11 197.412 130.164 197.359 120.676C198.784 115.446 200.475 112.914 202.236 117.902Z" fill="black"/>
<path d="M206.912 108.555C206.912 108.555 197.165 148.841 191.999 161.497C185.868 176.546 165.496 200.993 165.496 200.993L159.383 197.572C159.383 197.572 174.154 168.712 178.388 160.885C187.417 144.229 184.767 117.413 191.664 106.7L206.912 108.555Z" fill="#49851D"/>
<path d="M157.616 197.842L165.06 202.336L167.263 200.475L158.752 194.792L157.616 197.842Z" fill="#49851D"/>
<path opacity="0.3" d="M157.616 197.842L165.06 202.336L167.263 200.475L158.752 194.792L157.616 197.842Z" fill="black"/>
<path d="M210.552 61.0318C210.399 61.4206 210.487 61.8093 210.734 61.9094C210.982 62.0095 211.323 61.7739 211.465 61.3852C211.606 60.9965 211.535 60.6078 211.282 60.5077C211.029 60.4075 210.699 60.6431 210.552 61.0318Z" fill="#263238"/>
<path d="M214.916 62.7281C214.769 63.1168 214.851 63.5114 215.104 63.6057C215.358 63.6999 215.693 63.4702 215.835 63.0874C215.976 62.7046 215.899 62.3041 215.646 62.2098C215.393 62.1156 215.069 62.3453 214.916 62.7281Z" fill="#263238"/>
<path d="M215.529 62.1862L216.559 62.2804C216.559 62.2804 215.799 62.8517 215.529 62.1862Z" fill="#263238"/>
<path d="M213.302 62.9047C213.302 63.9185 213.443 64.9274 213.72 65.9025C213.469 65.9679 213.206 65.9771 212.95 65.9292C212.695 65.8814 212.453 65.7777 212.242 65.6257L213.302 62.9047Z" fill="#ED893E"/>
<path d="M209.545 66.3206C209.724 66.4194 209.909 66.5079 210.098 66.5857C210.128 66.5937 210.159 66.5905 210.187 66.5767C210.214 66.5628 210.235 66.5393 210.246 66.5107C210.257 66.4821 210.257 66.4505 210.246 66.4219C210.235 66.3933 210.214 66.3698 210.187 66.356C209.701 66.1814 209.264 65.8937 208.912 65.5169C208.56 65.14 208.302 64.6847 208.161 64.1886C208.153 64.1575 208.133 64.1307 208.106 64.1139C208.078 64.097 208.046 64.0915 208.014 64.0983C207.983 64.1052 207.956 64.124 207.938 64.1507C207.92 64.1775 207.913 64.21 207.919 64.2416C208.038 64.6789 208.243 65.088 208.522 65.445C208.801 65.802 209.149 66.0997 209.545 66.3206V66.3206Z" fill="#263238"/>
<path d="M200.557 60.537C200.463 61.5181 200.762 62.4964 201.387 63.258C202.23 64.2651 203.384 63.6938 203.743 62.5159C204.091 61.4557 204.073 59.6535 202.93 59.0822C202.68 58.9666 202.406 58.9145 202.131 58.9306C201.856 58.9466 201.589 59.0304 201.354 59.1743C201.12 59.3182 200.924 59.5179 200.785 59.7556C200.646 59.9933 200.567 60.2617 200.557 60.537V60.537Z" fill="#FFB573"/>
<path d="M209.963 58.4875C209.994 58.529 210.038 58.559 210.088 58.5729C210.138 58.5867 210.192 58.5836 210.24 58.5641C211.294 58.1754 212.495 58.9941 212.507 58.9999C212.56 59.0367 212.626 59.0508 212.689 59.0392C212.753 59.0276 212.809 58.9912 212.846 58.9381C212.883 58.885 212.897 58.8195 212.885 58.756C212.873 58.6925 212.837 58.6362 212.784 58.5994C212.725 58.5582 211.359 57.6335 210.069 58.1106C210.009 58.1332 209.959 58.1785 209.932 58.2368C209.904 58.2951 209.901 58.3618 209.922 58.4228C209.932 58.4464 209.946 58.4683 209.963 58.4875V58.4875Z" fill="#263238"/>
<path d="M217.572 60.4958C217.618 60.5252 217.673 60.5381 217.727 60.5324C217.782 60.5267 217.832 60.5028 217.871 60.4645C217.91 60.4262 217.935 60.3759 217.942 60.3216C217.948 60.2674 217.937 60.2126 217.908 60.166C217.726 59.8254 217.465 59.533 217.148 59.3128C216.83 59.0927 216.465 58.9511 216.082 58.8997C216.018 58.8965 215.954 58.9187 215.906 58.9617C215.857 59.0046 215.828 59.0648 215.823 59.1294C215.821 59.1611 215.825 59.193 215.835 59.2233C215.844 59.2535 215.86 59.2814 215.881 59.3055C215.902 59.3296 215.927 59.3493 215.956 59.3636C215.984 59.3778 216.015 59.3863 216.047 59.3886C216.35 59.4323 216.638 59.5475 216.888 59.7247C217.138 59.9018 217.342 60.1359 217.484 60.4075C217.502 60.4464 217.533 60.4777 217.572 60.4958Z" fill="#263238"/>
<path d="M161.409 208.65H161.473C161.588 208.655 161.702 208.631 161.804 208.58C161.907 208.53 161.996 208.455 162.062 208.361C162.113 208.309 162.149 208.243 162.164 208.171C162.18 208.099 162.175 208.024 162.151 207.955C161.95 207.331 160.154 206.854 159.948 206.777C159.926 206.772 159.902 206.773 159.88 206.78C159.858 206.787 159.839 206.801 159.824 206.818C159.811 206.839 159.804 206.862 159.804 206.886C159.804 206.91 159.811 206.934 159.824 206.954C160.136 207.572 160.755 208.538 161.409 208.65ZM160.172 207.148C160.884 207.354 161.815 207.737 161.939 208.061C161.948 208.092 161.948 208.125 161.94 208.156C161.931 208.187 161.915 208.215 161.892 208.238C161.847 208.302 161.787 208.354 161.717 208.389C161.647 208.424 161.569 208.441 161.491 208.438C161.114 208.391 160.643 207.908 160.172 207.148Z" fill="#49851D"/>
<path d="M160.066 207.089C160.696 207.207 161.903 207.119 162.215 206.689C162.277 206.614 162.31 206.52 162.31 206.424C162.31 206.327 162.277 206.233 162.215 206.159C162.162 206.083 162.093 206.019 162.012 205.972C161.932 205.925 161.843 205.897 161.75 205.888C161.008 205.805 159.907 206.801 159.859 206.842C159.845 206.856 159.835 206.874 159.828 206.894C159.822 206.913 159.821 206.934 159.824 206.954C159.829 206.975 159.839 206.995 159.854 207.011C159.868 207.027 159.886 207.04 159.907 207.048L160.066 207.089ZM161.738 206.135C161.789 206.144 161.838 206.164 161.882 206.192C161.925 206.22 161.962 206.257 161.992 206.3C162.086 206.43 162.056 206.5 161.992 206.547C161.779 206.836 160.772 206.966 160.154 206.865C160.571 206.471 161.1 206.214 161.668 206.129L161.738 206.135Z" fill="#49851D"/>
<path d="M203.001 223.545C203.441 223.585 203.881 223.475 204.25 223.233C204.331 223.159 204.393 223.067 204.43 222.965C204.468 222.862 204.481 222.752 204.468 222.644C204.465 222.576 204.444 222.511 204.408 222.454C204.372 222.397 204.321 222.351 204.262 222.32C203.631 221.972 201.582 223.021 201.352 223.144C201.33 223.155 201.311 223.173 201.299 223.196C201.288 223.218 201.284 223.243 201.287 223.268C201.293 223.292 201.306 223.315 201.323 223.332C201.341 223.35 201.363 223.362 201.387 223.368C201.919 223.478 202.459 223.537 203.001 223.545V223.545ZM203.92 222.485C203.997 222.48 204.074 222.494 204.144 222.526C204.169 222.539 204.189 222.558 204.204 222.582C204.219 222.606 204.226 222.634 204.226 222.661C204.238 222.733 204.231 222.806 204.206 222.874C204.181 222.942 204.14 223.003 204.085 223.05C203.773 223.333 202.907 223.38 201.788 223.192C202.451 222.827 203.173 222.58 203.92 222.461V222.485Z" fill="#49851D"/>
<path d="M201.411 223.368H201.458C202.047 223.091 203.284 221.978 203.19 221.401C203.19 221.26 203.066 221.089 202.73 221.054C202.607 221.042 202.482 221.056 202.364 221.096C202.247 221.135 202.138 221.199 202.047 221.283C201.399 221.819 201.281 223.203 201.276 223.262C201.274 223.284 201.279 223.305 201.288 223.325C201.297 223.344 201.311 223.361 201.329 223.374C201.356 223.38 201.385 223.378 201.411 223.368ZM202.636 221.283H202.707C202.931 221.283 202.942 221.395 202.948 221.425C203.007 221.778 202.183 222.65 201.558 223.027C201.606 222.443 201.835 221.89 202.212 221.442C202.329 221.34 202.48 221.283 202.636 221.283V221.283Z" fill="#49851D"/>
<path d="M211.158 60.4958L212.195 60.5901C212.195 60.5901 211.435 61.1202 211.158 60.4958Z" fill="#263238"/>
<path d="M232.974 153.311L200.345 142.12L214.433 114.74L238.645 123.038L232.974 153.311Z" fill="#263238"/>
<path d="M233.993 153.658L228.827 151.886L253.676 134.122L253.629 136.402L233.993 153.658Z" fill="#263238"/>
<path d="M212.336 139.717C207.206 139.729 202.252 137.852 198.417 134.444C194.583 131.037 192.136 126.337 191.545 121.242C190.953 116.146 192.257 111.011 195.209 106.816C198.16 102.62 202.553 99.6578 207.549 98.4933C212.545 97.3288 217.794 98.0437 222.297 100.502C226.799 102.96 230.24 106.989 231.962 111.821C233.685 116.653 233.568 121.95 231.636 126.701C229.703 131.453 226.089 135.327 221.483 137.585C218.636 138.982 215.508 139.711 212.336 139.717V139.717ZM212.301 99.8621C207.524 99.8562 202.92 101.646 199.402 104.877C195.884 108.108 193.709 112.544 193.309 117.304C192.909 122.064 194.313 126.8 197.243 130.573C200.173 134.346 204.414 136.879 209.125 137.67C213.835 138.461 218.671 137.452 222.673 134.844C226.674 132.235 229.549 128.217 230.726 123.588C231.903 118.958 231.296 114.056 229.027 109.853C226.757 105.65 222.99 102.453 218.473 100.899C216.488 100.213 214.402 99.8624 212.301 99.8621V99.8621Z" fill="#263238"/>
<path d="M252.433 127.673L252.822 135.966L259.878 140.348L252.433 127.673Z" fill="#263238"/>
<path d="M195.38 102.984L199.779 100.628L198.719 105.746C198.719 105.746 195.562 106.718 194.049 105.216L194.673 103.779C194.812 103.441 195.061 103.161 195.38 102.984Z" fill="#FFB573"/>
<path d="M193.448 84.5138C193.095 84.9556 192.682 85.4974 192.27 86.0039C191.858 86.5104 191.505 87.0523 191.139 87.5882C190.409 88.6543 189.679 89.7262 189.025 90.8334C187.705 92.9802 186.625 95.2653 185.803 97.6478L185.556 98.4252C185.523 98.5264 185.504 98.6312 185.497 98.7373C185.496 98.9525 185.571 99.1611 185.709 99.3263C186.398 100.071 187.248 100.647 188.195 101.011C189.351 101.513 190.544 101.924 191.764 102.242C193.006 102.589 194.326 102.872 195.586 103.113L195.456 105.711C192.547 105.864 189.631 105.547 186.822 104.774C186.058 104.545 185.316 104.252 184.602 103.897C183.771 103.493 183.018 102.946 182.376 102.283C181.572 101.453 181.049 100.392 180.88 99.2497C180.794 98.6797 180.794 98.1 180.88 97.53C180.88 97.4063 180.927 97.2414 180.95 97.1471L181.015 96.8762L181.151 96.3226C181.315 95.5805 181.557 94.8855 181.775 94.1729C181.993 93.4602 182.275 92.777 182.57 92.1115C183.134 90.7738 183.775 89.47 184.49 88.2066C185.197 86.9522 185.939 85.733 186.752 84.5551C187.158 83.9661 187.576 83.3771 188.006 82.7882C188.436 82.1992 188.866 81.6691 189.384 81.0625L193.448 84.5138Z" fill="#FFB573"/>
<path d="M193.66 75.1847C187.623 76.4451 184.855 83.7483 184.855 83.7483L192.035 90.486C192.035 90.486 195.292 89.102 195.745 86.2985C196.205 83.3772 195.339 74.8313 193.66 75.1847Z" fill="#263238"/>
<path d="M204.038 101.323L202.919 105.558L198.719 105.723L199.78 100.604L204.038 101.323Z" fill="#FFB573"/>
</svg>
